<svg width="248" height="152" viewBox="0 0 248 152" fill="none" xmlns="http://www.w3.org/2000/svg">
<path d="M122.6 151.561C121.761 151.561 120.977 151.338 120.249 150.946L112.804 146.527C111.684 145.911 112.244 145.687 112.58 145.575C114.091 145.072 114.371 144.96 115.939 144.065C116.107 143.953 116.331 144.009 116.499 144.121L122.209 147.533C122.433 147.645 122.713 147.645 122.88 147.533L145.217 134.61C145.441 134.498 145.553 134.274 145.553 133.994V108.203C145.553 107.922 145.441 107.699 145.217 107.587L122.88 94.7192C122.656 94.6069 122.376 94.6069 122.209 94.7192L99.8719 107.587C99.6481 107.699 99.5357 107.979 99.5357 108.202V133.994C99.5357 134.218 99.6481 134.497 99.8719 134.61L105.974 138.134C109.277 139.812 111.348 137.854 111.348 135.896V110.44C111.348 110.105 111.628 109.769 112.02 109.769H114.875C115.211 109.769 115.547 110.048 115.547 110.44V135.896C115.547 140.316 113.139 142.89 108.941 142.89C107.653 142.89 106.646 142.89 103.79 141.491L97.9126 138.134C96.457 137.295 95.5614 135.728 95.5614 134.05V108.258C95.5614 106.58 96.457 105.013 97.9126 104.174L120.249 91.2503C121.649 90.4671 123.552 90.4671 124.952 91.2503L147.288 104.174C148.744 105.013 149.64 106.58 149.64 108.258V134.05C149.64 135.728 148.744 137.295 147.288 138.134L124.952 151.058C124.224 151.394 123.384 151.561 122.601 151.561H122.6ZM129.486 133.826C119.69 133.826 117.674 129.351 117.674 125.546C117.674 125.21 117.954 124.875 118.346 124.875H121.257C121.593 124.875 121.873 125.098 121.873 125.434C122.321 128.399 123.608 129.854 129.542 129.854C134.245 129.854 136.261 128.791 136.261 126.273C136.261 124.819 135.7 123.756 128.367 123.028C122.265 122.413 118.458 121.07 118.458 116.203C118.458 111.671 122.265 108.985 128.647 108.985C135.812 108.985 139.339 111.447 139.787 116.818C139.787 116.986 139.731 117.154 139.619 117.322C139.507 117.434 139.339 117.545 139.171 117.545H136.26C135.98 117.545 135.7 117.322 135.644 117.042C134.973 113.965 133.237 112.958 128.647 112.958C123.496 112.958 122.88 114.748 122.88 116.091C122.88 117.713 123.608 118.217 130.55 119.112C137.436 120.007 140.683 121.294 140.683 126.105C140.627 131.029 136.596 133.826 129.486 133.826Z" fill="#539E43"/>
<path d="M53.2949 50.6886C53.2949 49.6817 52.7349 48.73 51.8393 48.2266L28.103 34.5756C27.7107 34.3515 27.2631 34.2397 26.8155 34.1835H26.5913C26.1437 34.1835 25.6957 34.3515 25.3038 34.5756L1.56749 48.2266C0.671392 48.73 0.111938 49.6812 0.111938 50.6886L0.168126 87.3898C0.168126 87.8933 0.448095 88.3967 0.895657 88.6208C1.3437 88.9006 1.90316 88.9006 2.2955 88.6208L16.4029 80.5644C17.2985 80.0609 17.8585 79.1097 17.8585 78.1028V60.9268C17.8585 59.92 18.4179 58.9687 19.314 58.4653L25.3038 54.9964C25.7518 54.7166 26.2556 54.6043 26.7593 54.6043C27.2631 54.6043 27.7668 54.7166 28.1592 54.9964L34.149 58.4653C35.0451 58.9687 35.6045 59.9195 35.6045 60.9268V78.1028C35.6045 79.1097 36.1645 80.0609 37.0601 80.5644L51.1675 88.6208C51.3854 88.758 51.6377 88.8307 51.8953 88.8307C52.1528 88.8307 52.4051 88.758 52.623 88.6208C53.0711 88.3967 53.351 87.8933 53.351 87.3898L53.2949 50.6886ZM167.386 0.167973C166.938 -0.0561539 166.379 -0.0561539 165.986 0.167973C165.539 0.44777 165.259 0.895056 165.259 1.3985V37.7647C165.259 38.1002 165.091 38.4357 164.755 38.6598C164.419 38.8273 164.083 38.8273 163.747 38.6598L157.813 35.2471C157.378 34.9995 156.886 34.8693 156.386 34.8693C155.885 34.8693 155.393 34.9995 154.958 35.2471L131.222 48.9542C130.326 49.4576 129.766 50.4088 129.766 51.4157V78.7738C129.766 79.7806 130.326 80.7323 131.222 81.2358L154.958 94.9429C155.393 95.1904 155.885 95.3206 156.386 95.3206C156.886 95.3206 157.378 95.1904 157.813 94.9429L181.55 81.2358C182.445 80.7323 183.005 79.7811 183.005 78.7738V10.5742C183.005 9.51113 182.445 8.56041 181.55 8.05648L167.386 0.167973ZM165.203 69.7665C165.203 70.0463 165.091 70.27 164.867 70.3818L156.75 75.0812C156.636 75.1365 156.512 75.1652 156.386 75.1652C156.259 75.1652 156.135 75.1365 156.022 75.0812L147.904 70.3818C147.68 70.27 147.568 69.9902 147.568 69.7665V60.3672C147.568 60.0874 147.68 59.8638 147.904 59.752L156.022 55.0521C156.135 54.9968 156.259 54.9681 156.386 54.9681C156.512 54.9681 156.636 54.9968 156.75 55.0521L164.867 59.752C165.091 59.8633 165.203 60.1436 165.203 60.3672V69.7665ZM246.376 60.1436C247.273 59.6402 247.776 58.6889 247.776 57.6816V51.0241C247.776 50.0172 247.216 49.066 246.376 48.5625L222.808 34.9116C222.373 34.664 221.881 34.5339 221.38 34.5339C220.88 34.5339 220.388 34.664 219.953 34.9116L196.216 48.6182C195.32 49.1217 194.761 50.0729 194.761 51.0797V78.4383C194.761 79.4452 195.321 80.3964 196.216 80.8998L219.785 94.3271C220.681 94.8306 221.745 94.8306 222.584 94.3271L236.859 86.3834C237.307 86.1593 237.587 85.6559 237.587 85.1524C237.587 84.649 237.307 84.1456 236.859 83.9214L213.011 70.2143C212.563 69.9345 212.283 69.4872 212.283 68.9838V60.4239C212.283 59.9204 212.563 59.417 213.011 59.1929L220.457 54.9407C220.675 54.8037 220.927 54.7309 221.184 54.7309C221.442 54.7309 221.694 54.8037 221.912 54.9407L229.358 59.1929C229.806 59.4727 230.085 59.92 230.085 60.4239V67.1375C230.085 67.641 230.365 68.1444 230.813 68.368C231.031 68.5052 231.284 68.5779 231.541 68.5779C231.799 68.5779 232.051 68.5052 232.269 68.368L246.376 60.1436Z" fill="#EBEAEA"/>
<path d="M221.016 58.8564C221.1 58.8016 221.197 58.7725 221.296 58.7725C221.396 58.7725 221.493 58.8016 221.576 58.8564L226.111 61.4859C226.279 61.5982 226.391 61.7657 226.391 61.9894V67.2488C226.391 67.4725 226.279 67.6405 226.111 67.7523L221.576 70.3818C221.493 70.4365 221.396 70.4657 221.296 70.4657C221.197 70.4657 221.1 70.4365 221.016 70.3818L216.482 67.7523C216.314 67.6405 216.202 67.4725 216.202 67.2488V61.9898C216.202 61.7657 216.314 61.5977 216.482 61.4864L221.016 58.8564V58.8564Z" fill="#539E43"/>
<path d="M116.61 48.6182L92.9303 35.0234C92.6976 34.906 92.4537 34.8122 92.2023 34.7436L65.6667 80.1732C65.8866 80.4414 66.152 80.6687 66.451 80.8446L90.1311 94.4399C90.8029 94.8315 91.5866 94.9433 92.3142 94.7192L117.227 49.1783C117.058 48.9546 116.834 48.7862 116.61 48.6187V48.6182Z" fill="url(#paint0_linear_80_46)"/>
<path fill-rule="evenodd" clip-rule="evenodd" d="M89.3474 30.0437L89.0117 30.2117H89.4593L89.3474 30.0437V30.0437Z" fill="url(#paint1_linear_80_46)"/>
<path fill-rule="evenodd" clip-rule="evenodd" d="M116.667 80.788C117.338 80.3964 117.842 79.725 118.066 78.9979L92.0899 34.6875C91.4181 34.5756 90.6901 34.6313 90.0749 35.0229L66.5624 48.5625L91.9218 94.7749C92.2906 94.7145 92.6489 94.6016 92.9855 94.4394L116.666 80.7885L116.667 80.788Z" fill="url(#paint2_linear_80_46)"/>
<path fill-rule="evenodd" clip-rule="evenodd" d="M118.85 80.3407L118.682 80.0609V80.4525L118.85 80.3407H118.85Z" fill="url(#paint3_linear_80_46)"/>
<path fill-rule="evenodd" clip-rule="evenodd" d="M116.667 80.788L93.0422 94.3833C92.7087 94.5532 92.3492 94.6666 91.9785 94.7187L92.4266 95.5581L118.626 80.3968V80.0609L117.954 78.9417C117.842 79.7249 117.338 80.3964 116.667 80.788V80.788Z" fill="url(#paint4_linear_80_46)"/>
<path fill-rule="evenodd" clip-rule="evenodd" d="M116.667 80.788L93.0422 94.3833C92.7087 94.5532 92.3492 94.6666 91.9785 94.7187L92.4266 95.5581L118.626 80.3968V80.0609L117.954 78.9417C117.842 79.7249 117.338 80.3964 116.667 80.788V80.788Z" fill="url(#paint5_linear_80_46)"/>
<defs>
<linearGradient id="paint0_linear_80_46" x1="87.9803" y1="67.8946" x2="152.66" y2="32.7323" gradientUnits="userSpaceOnUse">
<stop offset="0.1376" stop-color="#41873F"/>
<stop offset="0.4032" stop-color="#54A044"/>
<stop offset="0.7136" stop-color="#66B848"/>
<stop offset="0.9081" stop-color="#6CC04A"/>
</linearGradient>
<linearGradient id="paint1_linear_80_46" x1="69.2573" y1="30.0663" x2="112.858" y2="30.0663" gradientUnits="userSpaceOnUse">
<stop offset="0.09192" stop-color="#6CC04A"/>
<stop offset="0.2864" stop-color="#66B848"/>
<stop offset="0.5968" stop-color="#54A044"/>
<stop offset="0.8624" stop-color="#41873F"/>
</linearGradient>
<linearGradient id="paint2_linear_80_46" x1="64.3019" y1="64.7039" x2="118.839" y2="64.7039" gradientUnits="userSpaceOnUse">
<stop offset="0.09192" stop-color="#6CC04A"/>
<stop offset="0.2864" stop-color="#66B848"/>
<stop offset="0.5968" stop-color="#54A044"/>
<stop offset="0.8624" stop-color="#41873F"/>
</linearGradient>
<linearGradient id="paint3_linear_80_46" x1="102.355" y1="80.2027" x2="118.729" y2="80.2027" gradientUnits="userSpaceOnUse">
<stop offset="0.09192" stop-color="#6CC04A"/>
<stop offset="0.2864" stop-color="#66B848"/>
<stop offset="0.5968" stop-color="#54A044"/>
<stop offset="0.8624" stop-color="#41873F"/>
</linearGradient>
<linearGradient id="paint4_linear_80_46" x1="64.3023" y1="87.2956" x2="118.838" y2="87.2956" gradientUnits="userSpaceOnUse">
<stop offset="0.09192" stop-color="#6CC04A"/>
<stop offset="0.2864" stop-color="#66B848"/>
<stop offset="0.5968" stop-color="#54A044"/>
<stop offset="0.8624" stop-color="#41873F"/>
</linearGradient>
<linearGradient id="paint5_linear_80_46" x1="126.783" y1="43.8696" x2="112.984" y2="116.224" gradientUnits="userSpaceOnUse">
<stop stop-color="#41873F"/>
<stop offset="0.3288" stop-color="#418B3D"/>
<stop offset="0.6352" stop-color="#419637"/>
<stop offset="0.9319" stop-color="#3FA92D"/>
<stop offset="1" stop-color="#3FAE2A"/>
</linearGradient>
</defs>
</svg>
