<svg width="76" height="76" viewBox="0 0 76 76" fill="none" xmlns="http://www.w3.org/2000/svg">
<circle cx="38" cy="38" r="38" fill="#20222E"/>
<path d="M38.5 20C30.6334 20 25.7166 23.889 23.75 31.6667C26.7 27.7777 30.1416 26.3194 34.075 27.2917C36.3191 27.8463 37.9231 29.4562 39.6987 31.2378C42.5911 34.1406 45.9384 37.5 53.25 37.5C61.1166 37.5 66.0334 33.611 68 25.8333C65.05 29.7223 61.6084 31.1806 57.675 30.2083C55.4309 29.6537 53.8269 28.0438 52.0513 26.2622C49.1589 23.3594 45.8116 20 38.5 20ZM23.75 37.5C15.8834 37.5 10.9666 41.389 9 49.1667C11.95 45.2777 15.3916 43.8194 19.325 44.7917C21.5691 45.3463 23.1731 46.9562 24.9487 48.7378C27.841 51.6406 31.1884 55 38.5 55C46.3666 55 51.2834 51.111 53.25 43.3333C50.3 47.2223 46.8584 48.6806 42.925 47.7083C40.6809 47.1537 39.0769 45.5438 37.3013 43.7622C34.409 40.8594 31.0616 37.5 23.75 37.5Z" fill="url(#paint0_linear_92_115)"/>
<defs>
<linearGradient id="paint0_linear_92_115" x1="7.36098" y1="31.2" x2="58.0265" y2="60.7467" gradientUnits="userSpaceOnUse">
<stop stopColor="#2298BD"/>
<stop offset="1" stopColor="#0ED7B5"/>
</linearGradient>
</defs>
</svg>
