<svg width="76" height="76" viewBox="0 0 76 76" fill="none" xmlns="http://www.w3.org/2000/svg">
<circle cx="38" cy="38" r="38" fill="#20222E"/>
<path d="M21 53.4376L21.3109 53.0024L36.0124 25.1066L36.0434 24.8113L29.5629 12.6381C29.0196 11.6184 27.491 11.8763 27.3129 13.0178L21 53.4376Z" fill="#FFC24A"/>
<path d="M40.7679 34.0192L45.5933 29.0774L40.7665 19.8629C40.3083 18.9907 39.029 18.9881 38.5757 19.8629L35.9967 24.7809V25.1996L40.7678 34.0192H40.7679Z" fill="#F4BD62"/>
<path d="M21 53.4376L21.1409 53.2958L21.6528 53.0879L40.4648 34.3457L40.7032 33.6969L36.0103 24.7542L21 53.4376Z" fill="#F6820C"/>
<path d="M41.3706 62.8896L58.396 53.3945L53.5341 23.4516C53.382 22.5148 52.2327 22.1445 51.5621 22.8161L21 53.4376L37.9277 62.8889C38.4539 63.1827 39.0465 63.337 39.6491 63.3371C40.2517 63.3372 40.8443 63.1832 41.3706 62.8896" fill="#FDE068"/>
<path d="M58.2434 53.3149L53.4185 23.5994C53.2677 22.6696 52.3118 22.2849 51.6463 22.9516L21.1889 53.3793L37.9308 62.7369C38.453 63.0285 39.041 63.1816 39.639 63.1817C40.2371 63.1819 40.8252 63.0291 41.3475 62.7378L58.2436 53.3147L58.2434 53.3149Z" fill="#FCCA3F"/>
<path d="M41.3705 62.6099C40.8442 62.9034 40.2516 63.0574 39.649 63.0572C39.0464 63.0571 38.4539 62.9029 37.9277 62.6091L21.1363 53.2937L21.0002 53.4376L37.9277 62.8889C38.4539 63.1827 39.0465 63.337 39.6491 63.3371C40.2517 63.3372 40.8443 63.1832 41.3706 62.8897L58.396 53.3945L58.3543 53.138L41.3706 62.61L41.3705 62.6099Z" fill="#EEAB37"/>
</svg>
